<!-- Generated by IcoMoon.io -->
<svg version="1.1" xmlns="http://www.w3.org/2000/svg" width="32" height="32" viewBox="0 0 32 32">
<path fill="#dcdddf" d="M10.666 25.143c-1.676 0-3.032 1.371-3.032 3.048s1.356 3.048 3.032 3.048 3.048-1.371 3.048-3.048c0-1.676-1.371-3.048-3.048-3.048zM1.523 2.286c0 0.838 0.686 1.524 1.524 1.524h1.524l5.486 11.566-2.057 3.718c-1.112 2.042 0.35 4.526 2.667 4.526h16.762c0.838 0 1.524-0.686 1.524-1.524s-0.686-1.524-1.524-1.524h-16.762l1.676-3.048h11.352c1.143 0 2.149-0.625 2.667-1.57l5.455-9.89c0.128-0.231 0.194-0.491 0.191-0.756s-0.075-0.523-0.209-0.751-0.325-0.417-0.554-0.548c-0.229-0.131-0.489-0.2-0.753-0.201h-22.552l-1.021-2.179c-0.122-0.26-0.316-0.48-0.559-0.634s-0.525-0.235-0.812-0.235h-2.499c-0.838 0-1.524 0.686-1.524 1.524zM25.904 25.143c-1.676 0-3.032 1.371-3.032 3.048s1.356 3.048 3.032 3.048c1.676 0 3.048-1.371 3.048-3.048s-1.371-3.048-3.048-3.048z"></path>
</svg>
