<!-- Generated by IcoMoon.io -->
<svg version="1.1" xmlns="http://www.w3.org/2000/svg" width="32" height="32" viewBox="0 0 32 32">
<path fill="#59b17a" d="M22.095 24.762v3.048h-21.333v-3.048c0 0 0-6.095 10.667-6.095s10.667 6.095 10.667 6.095zM16.762 10.286c0-1.055-0.313-2.086-0.899-2.963s-1.419-1.561-2.394-1.964c-0.975-0.404-2.047-0.509-3.081-0.303s-1.985 0.714-2.731 1.46c-0.746 0.746-1.254 1.696-1.46 2.731s-0.1 2.107 0.303 3.081c0.404 0.975 1.087 1.808 1.964 2.394s1.908 0.899 2.963 0.899c1.415 0 2.771-0.562 3.771-1.562s1.562-2.357 1.562-3.771zM22.004 18.667c0.937 0.725 1.703 1.646 2.246 2.699s0.847 2.212 0.893 3.396v3.048h6.095v-3.048c0 0 0-5.531-9.234-6.095zM20.572 4.952c-1.049-0.006-2.075 0.308-2.941 0.899 0.926 1.293 1.423 2.844 1.423 4.434s-0.498 3.141-1.423 4.434c0.866 0.591 1.892 0.905 2.941 0.899 1.415 0 2.771-0.562 3.771-1.562s1.562-2.357 1.562-3.771-0.562-2.771-1.562-3.771c-1-1-2.357-1.562-3.771-1.562z"></path>
</svg>
