<!-- Generated by IcoMoon.io -->
<svg version="1.1" xmlns="http://www.w3.org/2000/svg" width="32" height="32" viewBox="0 0 32 32">
<path fill="none" stroke-linejoin="round" stroke-linecap="round" stroke-miterlimit="4" stroke-width="2.6667" stroke="#000" d="M29.333 26.963c0-2.581-2.474-4.775-5.926-5.59M20.444 26.963c0-3.274-3.979-5.926-8.889-5.926s-8.889 2.652-8.889 5.926M20.444 16.593c1.572 0 3.079-0.624 4.19-1.736s1.736-2.619 1.736-4.19c0-1.572-0.624-3.079-1.736-4.19s-2.619-1.736-4.19-1.736M11.556 16.593c-1.572 0-3.079-0.624-4.19-1.736s-1.736-2.619-1.736-4.19c0-1.572 0.624-3.079 1.736-4.19s2.619-1.736 4.19-1.736c1.572 0 3.079 0.624 4.19 1.736s1.736 2.619 1.736 4.19c0 1.572-0.624 3.079-1.736 4.19s-2.619 1.736-4.19 1.736z"></path>
</svg>
