<!-- Generated by IcoMoon.io -->
<svg version="1.1" xmlns="http://www.w3.org/2000/svg" width="32" height="32" viewBox="0 0 32 32">
<path fill="#dcdddf" d="M20.571 12.39v-8.581h1.524c0.404 0 0.792-0.161 1.078-0.446s0.446-0.673 0.446-1.078c0-0.404-0.161-0.792-0.446-1.077s-0.673-0.446-1.078-0.446h-12.19c-0.404 0-0.792 0.161-1.078 0.446s-0.446 0.673-0.446 1.077c0 0.404 0.161 0.792 0.446 1.077s0.673 0.446 1.078 0.446h1.524v8.581l-7.965 11.704c-2.065 3.035 0.11 7.144 3.779 7.144h17.513c3.672 0 5.845-4.108 3.779-7.144l-7.963-11.704z"></path>
</svg>
