<!-- Generated by IcoMoon.io -->
<svg version="1.1" xmlns="http://www.w3.org/2000/svg" width="32" height="32" viewBox="0 0 32 32">
<path fill="#59b17a" d="M1.778 17.778h10.667c0.978 0 1.778-0.8 1.778-1.778v-14.222c0-0.978-0.8-1.778-1.778-1.778h-10.667c-0.978 0-1.778 0.8-1.778 1.778v14.222c0 0.978 0.8 1.778 1.778 1.778zM1.778 32h10.667c0.978 0 1.778-0.8 1.778-1.778v-7.111c0-0.978-0.8-1.778-1.778-1.778h-10.667c-0.978 0-1.778 0.8-1.778 1.778v7.111c0 0.978 0.8 1.778 1.778 1.778zM19.556 32h10.667c0.978 0 1.778-0.8 1.778-1.778v-14.222c0-0.978-0.8-1.778-1.778-1.778h-10.667c-0.978 0-1.778 0.8-1.778 1.778v14.222c0 0.978 0.8 1.778 1.778 1.778zM17.778 1.778v7.111c0 0.978 0.8 1.778 1.778 1.778h10.667c0.978 0 1.778-0.8 1.778-1.778v-7.111c0-0.978-0.8-1.778-1.778-1.778h-10.667c-0.978 0-1.778 0.8-1.778 1.778z"></path>
</svg>
