<!-- Generated by IcoMoon.io -->
<svg version="1.1" xmlns="http://www.w3.org/2000/svg" width="32" height="32" viewBox="0 0 32 32">
<path fill="#fff" d="M5.714 0.762c-1.212 0-2.375 0.482-3.232 1.339s-1.339 2.020-1.339 3.232v21.333c0 1.212 0.482 2.375 1.339 3.232s2.020 1.339 3.232 1.339h9.143c1.212 0 2.375-0.482 3.232-1.339s1.339-2.020 1.339-3.232v-21.333c0-1.212-0.482-2.375-1.339-3.232s-2.020-1.339-3.232-1.339h-9.143zM21.399 8.828c0.286-0.286 0.673-0.446 1.077-0.446s0.792 0.16 1.077 0.446l6.095 6.095c0.286 0.286 0.446 0.673 0.446 1.077s-0.16 0.792-0.446 1.077l-6.095 6.095c-0.287 0.278-0.672 0.431-1.072 0.428s-0.782-0.164-1.064-0.446-0.443-0.665-0.446-1.064c-0.003-0.4 0.15-0.784 0.428-1.072l3.494-3.494h-13.084c-0.404 0-0.792-0.161-1.078-0.446s-0.446-0.673-0.446-1.078c0-0.404 0.161-0.792 0.446-1.078s0.673-0.446 1.078-0.446h13.084l-3.494-3.494c-0.286-0.286-0.446-0.673-0.446-1.077s0.16-0.792 0.446-1.077z"></path>
</svg>
